<svg width="55" height="12" viewBox="0 0 55 12" fill="none" xmlns="http://www.w3.org/2000/svg">
<path d="M12.9072 3.30385L11.5491 4.18039L11.9632 2.61997L10.7111 1.59895L12.3196 1.50263L12.9072 0L13.4851 1.50263L15.0937 1.59895L13.8512 2.61997L14.2557 4.18039L12.9072 3.30385Z" fill="#EF3E2F"/>
<path d="M17.6366 6.87706L16.1821 8.46637C15.2767 9.46812 14.0919 10.0172 12.8301 10.0172H12.2136V11.9918H12.8301C14.6602 11.9918 16.3651 11.2116 17.6462 9.79562L19.091 8.2063C19.9965 7.20455 21.1909 6.65551 22.4527 6.65551H23.0691V4.68091H22.4527C20.6322 4.68091 18.9176 5.46112 17.6366 6.87706Z" fill="#ffffff"/>
<path d="M3.65061 4.68091C1.63748 4.68091 0 6.31839 0 8.34115V11.9918H3.65061C4.6331 11.9918 5.54816 11.6161 6.24168 10.9226C6.24168 10.9226 8.03327 9.131 9.09282 8.07145C9.09282 9.52592 9.09282 11.9821 9.09282 11.9821H11.0674V4.68091H3.65061ZM4.84501 9.52592C4.52715 9.84378 4.10333 10.0172 3.65061 10.0172C3.65061 10.0172 2.86077 10.0172 1.97461 10.0172C1.97461 9.23695 1.97461 8.34115 1.97461 8.34115C1.97461 7.41646 2.72592 6.66515 3.65061 6.66515C3.65061 6.66515 5.71191 6.66515 7.70578 6.66515C6.65587 7.71506 4.84501 9.52592 4.84501 9.52592Z" fill="#ffffff"/>
<path d="M26.1515 4.68093V2.72559H24.1769V8.34117C24.1769 10.3543 25.8144 11.9918 27.8371 11.9918H33.3468V10.0172H27.8371C26.9124 10.0172 26.1611 9.26587 26.1611 8.34117V6.65553H33.3468V4.68093H26.1515Z" fill="#ffffff"/>
<path d="M38.1917 4.68091C36.1786 4.68091 34.5315 6.31839 34.5315 8.33152V11.9821H36.5061V8.34115C36.5061 7.41646 37.2574 6.66515 38.1821 6.66515H43.4317V4.68091H38.1917Z" fill="#ffffff"/>
<path d="M47.7373 4.68091C45.7241 4.68091 44.077 6.31839 44.077 8.33152C44.077 10.3447 45.7145 11.9821 47.7373 11.9821H51.3397C53.3529 11.9821 55 10.3447 55 8.33152V4.68091H47.7373ZM53.0157 8.34115C53.0157 9.26585 52.2644 10.0172 51.3397 10.0172H47.7373C46.8126 10.0172 46.0613 9.26585 46.0613 8.34115C46.0613 7.41646 46.8126 6.66515 47.7373 6.66515C47.7373 6.66515 51.5902 6.66515 53.0157 6.66515C53.0157 7.44536 53.0157 8.34115 53.0157 8.34115Z" fill="#ffffff"/>
</svg>
